<svg width="362" height="362" viewBox="0 0 362 362" fill="none" xmlns="http://www.w3.org/2000/svg">
<g id="password-illo" clip-path="url(#clip0)">
<g id="Group">
<g id="Group_2">
<path id="Vector" d="M136.257 143.095L134.99 143.338C133.781 143.581 132.63 142.731 132.399 141.515L132.169 140.179L130.039 140.604L130.269 141.941C130.499 143.217 129.693 144.432 128.542 144.675L127.275 144.918L127.678 147.166L128.945 146.923C130.154 146.68 131.305 147.531 131.536 148.746L131.766 150.083L133.896 149.657L133.666 148.32C133.436 147.045 134.242 145.829 135.393 145.586L136.66 145.343L136.257 143.095Z" fill="#FF7E1D"/>
<path id="Vector_2" d="M132.861 175.358L132.17 175.48C131.48 175.601 130.846 175.176 130.674 174.447L130.558 173.718L129.349 173.961L129.465 174.69C129.58 175.419 129.177 176.087 128.486 176.27L127.795 176.391L128.025 177.667L128.716 177.546C129.407 177.424 130.04 177.849 130.213 178.579L130.328 179.308L131.537 179.065L131.422 178.335C131.307 177.606 131.71 176.938 132.401 176.756L133.092 176.634L132.861 175.358Z" fill="#FF7E1D"/>
<path id="Vector_3" d="M160.267 138.841L159.748 138.963C159.23 139.084 158.77 138.72 158.655 138.173L158.539 137.626L157.618 137.808L157.733 138.355C157.849 138.902 157.503 139.388 156.985 139.51L156.467 139.631L156.64 140.603L157.158 140.482C157.676 140.36 158.136 140.725 158.252 141.272L158.367 141.818L159.288 141.636L159.173 141.089C159.058 140.542 159.403 140.056 159.921 139.935L160.439 139.813L160.267 138.841Z" fill="#FF7E1D"/>
<path id="Vector_4" d="M92.4424 99.8343L91.9242 99.9558C91.4061 100.077 90.9455 99.7128 90.8303 99.166L90.7152 98.6191L89.794 98.8014L89.9092 99.3483C90.0243 99.8951 89.6789 100.381 89.1607 100.503L88.6426 100.624L88.8153 101.596L89.3334 101.475C89.8516 101.353 90.3122 101.718 90.4273 102.265L90.5425 102.812L91.4636 102.629L91.3485 102.082C91.2333 101.536 91.5788 101.05 92.0969 100.928L92.6151 100.806L92.4424 99.8343Z" fill="#FF7E1D"/>
<path id="Vector_5" d="M135.046 247.785L134.528 247.906C134.01 248.028 133.549 247.663 133.434 247.116L133.319 246.569L132.398 246.752L132.513 247.298C132.628 247.845 132.282 248.331 131.764 248.453L131.246 248.574L131.419 249.547L131.937 249.425C132.455 249.304 132.916 249.668 133.031 250.215L133.146 250.762L134.067 250.579L133.952 250.033C133.837 249.486 134.182 249 134.7 248.878L135.219 248.757L135.046 247.785Z" fill="#FF7E1D"/>
<path id="Vector_6" d="M106.836 144.675L106.145 144.796C105.454 144.918 104.821 144.492 104.648 143.763L104.533 143.034L103.324 143.277L103.439 144.006C103.554 144.735 103.151 145.404 102.46 145.586L101.77 145.708L102 146.984L102.691 146.862C103.382 146.741 104.015 147.166 104.188 147.895L104.303 148.624L105.512 148.381L105.397 147.652C105.281 146.923 105.684 146.254 106.375 146.072L107.066 145.951L106.836 144.675Z" fill="#FF7E1D"/>
<path id="Vector_7" d="M143.454 112.29L143.109 112.351C142.763 112.412 142.418 112.169 142.36 111.804L142.303 111.439L141.669 111.561L141.727 111.926C141.784 112.29 141.554 112.655 141.209 112.715L140.863 112.776L140.978 113.445L141.324 113.384C141.669 113.323 142.015 113.566 142.072 113.931L142.13 114.295L142.763 114.174L142.706 113.809C142.648 113.445 142.878 113.08 143.224 113.019L143.569 112.958L143.454 112.29Z" fill="#FF7E1D"/>
<path id="Vector_8" d="M186.516 90.8421L186.343 90.9029C186.17 90.9636 185.998 90.8421 185.998 90.6598L185.94 90.4775L185.652 90.5383L185.71 90.7206C185.767 90.9029 185.652 91.0851 185.479 91.0851L185.307 91.1459L185.364 91.4497L185.537 91.3889C185.71 91.3282 185.882 91.4497 185.882 91.632L185.94 91.8142L186.228 91.7535L186.17 91.5712C186.113 91.3889 186.228 91.2066 186.401 91.2066L186.573 91.1459L186.516 90.8421Z" fill="#FF7E1D"/>
<path id="Vector_9" d="M210.295 109.373L210.122 109.434C209.95 109.495 209.777 109.373 209.777 109.191L209.719 109.009L209.431 109.07L209.489 109.252C209.547 109.434 209.431 109.616 209.259 109.616L209.086 109.677L209.144 109.981L209.316 109.92C209.489 109.859 209.662 109.981 209.662 110.163L209.719 110.345L210.007 110.285L209.95 110.102C209.892 109.92 210.007 109.738 210.18 109.738L210.353 109.677L210.295 109.373Z" fill="#FF7E1D"/>
<path id="Vector_10" d="M182.546 129.606L182.2 129.667C181.855 129.728 181.51 129.485 181.452 129.12L181.394 128.756L180.761 128.877L180.819 129.242C180.876 129.606 180.646 129.971 180.301 130.032L179.955 130.093L180.07 130.761L180.416 130.7C180.761 130.639 181.107 130.882 181.164 131.247L181.222 131.612L181.855 131.49L181.797 131.125C181.74 130.761 181.97 130.396 182.316 130.336L182.661 130.275L182.546 129.606Z" fill="#FF7E1D"/>
<path id="Vector_11" d="M119.272 108.341L118.927 108.402C118.582 108.462 118.236 108.219 118.179 107.855L118.121 107.49L117.488 107.612L117.545 107.976C117.603 108.341 117.373 108.705 117.027 108.766L116.682 108.827L116.797 109.495L117.142 109.435C117.488 109.374 117.833 109.617 117.891 109.981L117.948 110.346L118.582 110.224L118.524 109.86C118.466 109.495 118.697 109.131 119.042 109.07L119.388 109.009L119.272 108.341Z" fill="#FF7E1D"/>
<path id="Vector_12" d="M125.087 74.9219L124.741 74.9827C124.396 75.0434 124.051 74.8004 123.993 74.4358L123.935 74.0713L123.302 74.1928L123.36 74.5574C123.417 74.9219 123.187 75.2865 122.842 75.3472L122.496 75.408L122.611 76.0764L122.957 76.0156C123.302 75.9548 123.648 76.1979 123.705 76.5624L123.763 76.927L124.396 76.8055L124.338 76.4409C124.281 76.0764 124.511 75.7118 124.857 75.651L125.202 75.5903L125.087 74.9219Z" fill="#FF7E1D"/>
<path id="Vector_13" d="M139.999 78.8721L139.654 78.9329C139.308 78.9936 138.963 78.7506 138.905 78.386L138.848 78.0215L138.214 78.143L138.272 78.5076C138.329 78.8721 138.099 79.2367 137.754 79.2974L137.408 79.3582L137.523 80.0265L137.869 79.9658C138.214 79.905 138.56 80.1481 138.617 80.5126L138.675 80.8772L139.308 80.7557L139.251 80.3911C139.193 80.0266 139.423 79.662 139.769 79.6012L140.114 79.5405L139.999 78.8721Z" fill="#FF7E1D"/>
<path id="Vector_14" d="M93.4239 170.558L93.2512 170.619C93.0784 170.679 92.9057 170.558 92.9057 170.376L92.8481 170.193L92.5603 170.254L92.6178 170.436C92.6754 170.619 92.5603 170.801 92.3876 170.801L92.2148 170.862L92.2724 171.166L92.4451 171.105C92.6178 171.044 92.7906 171.166 92.7906 171.348L92.8481 171.53L93.136 171.469L93.0784 171.287C93.0209 171.105 93.136 170.922 93.3087 170.922L93.4814 170.862L93.4239 170.558Z" fill="#FF7E1D"/>
<path id="Vector_15" d="M137.005 205.252L136.659 205.313C136.314 205.374 135.969 205.13 135.911 204.766L135.853 204.401L135.22 204.523L135.278 204.887C135.335 205.252 135.105 205.617 134.76 205.677L134.414 205.738L134.529 206.406L134.875 206.346C135.22 206.285 135.566 206.528 135.623 206.892L135.681 207.257L136.314 207.136L136.256 206.771C136.199 206.406 136.429 206.042 136.775 205.981L137.12 205.92L137.005 205.252Z" fill="#FF7E1D"/>
<path id="Vector_16" d="M174.196 151.845L173.851 151.906C173.505 151.966 173.16 151.723 173.102 151.359L173.045 150.994L172.411 151.116L172.469 151.48C172.527 151.845 172.296 152.209 171.951 152.27L171.605 152.331L171.721 152.999L172.066 152.938C172.411 152.878 172.757 153.121 172.814 153.485L172.872 153.85L173.505 153.728L173.448 153.364C173.39 152.999 173.621 152.635 173.966 152.574L174.311 152.513L174.196 151.845Z" fill="#FF7E1D"/>
<path id="Vector_17" d="M197.57 173.232L197.398 173.293C197.225 173.353 197.052 173.232 197.052 173.049L196.995 172.867L196.707 172.928L196.764 173.11C196.822 173.293 196.707 173.475 196.534 173.475L196.361 173.536L196.419 173.839L196.592 173.779C196.764 173.718 196.937 173.839 196.937 174.022L196.995 174.204L197.282 174.143L197.225 173.961C197.167 173.779 197.282 173.596 197.455 173.596L197.628 173.536L197.57 173.232Z" fill="#FF7E1D"/>
<path id="Vector_18" d="M107.76 241.526L107.587 241.586C107.414 241.647 107.242 241.526 107.242 241.343L107.184 241.161L106.896 241.222L106.954 241.404C107.011 241.586 106.896 241.769 106.724 241.769L106.551 241.829L106.608 242.133L106.781 242.073C106.954 242.012 107.127 242.133 107.127 242.316L107.184 242.498L107.472 242.437L107.414 242.255C107.357 242.073 107.472 241.89 107.645 241.89L107.817 241.829L107.76 241.526Z" fill="#FF7E1D"/>
<path id="Vector_19" d="M115.647 277.313L115.474 277.374C115.301 277.434 115.128 277.313 115.128 277.131L115.071 276.948L114.783 277.009L114.841 277.191C114.898 277.374 114.783 277.556 114.61 277.556L114.438 277.617L114.495 277.92L114.668 277.86C114.841 277.799 115.013 277.92 115.013 278.103L115.071 278.285L115.359 278.224L115.301 278.042C115.244 277.86 115.359 277.677 115.531 277.677L115.704 277.617L115.647 277.313Z" fill="#FF7E1D"/>
<path id="Vector_20" d="M113.229 208.716L112.884 208.777C112.539 208.837 112.193 208.594 112.136 208.23L112.078 207.865L111.445 207.987L111.502 208.351C111.56 208.716 111.33 209.08 110.984 209.141L110.639 209.202L110.754 209.87L111.099 209.81C111.445 209.749 111.79 209.992 111.848 210.356L111.905 210.721L112.539 210.599L112.481 210.235C112.423 209.87 112.654 209.506 112.999 209.445L113.345 209.384L113.229 208.716Z" fill="#FF7E1D"/>
<path id="Vector_21" d="M112.71 184.047L112.364 184.108C112.019 184.168 111.674 183.925 111.616 183.561L111.558 183.196L110.925 183.318L110.983 183.682C111.04 184.047 110.81 184.411 110.465 184.472L110.119 184.533L110.234 185.201L110.58 185.141C110.925 185.08 111.271 185.323 111.328 185.687L111.386 186.052L112.019 185.93L111.961 185.566C111.904 185.201 112.134 184.837 112.48 184.776L112.825 184.715L112.71 184.047Z" fill="#FF7E1D"/>
<path id="Vector_22" d="M155.371 233.262L155.198 233.323C155.026 233.384 154.853 233.262 154.853 233.08L154.795 232.897L154.508 232.958L154.565 233.14C154.623 233.323 154.508 233.505 154.335 233.505L154.162 233.566L154.22 233.87L154.392 233.809C154.565 233.748 154.738 233.87 154.738 234.052L154.795 234.234L155.083 234.173L155.026 233.991C154.968 233.809 155.083 233.627 155.256 233.627L155.429 233.566L155.371 233.262Z" fill="#FF7E1D"/>
<path id="Vector_23" d="M131.939 228.644L131.767 228.705C131.594 228.765 131.421 228.644 131.421 228.462L131.364 228.279H131.076L131.133 228.462C131.191 228.644 131.076 228.826 130.903 228.826L130.73 228.887L130.788 229.191L130.961 229.13C131.133 229.069 131.306 229.191 131.306 229.373L131.364 229.555L131.652 229.494L131.594 229.312C131.536 229.13 131.652 228.948 131.824 228.948L131.997 228.887L131.939 228.644Z" fill="#FF7E1D"/>
<path id="Vector_24" d="M134.299 292.26L134.126 292.321C133.953 292.382 133.781 292.26 133.781 292.078L133.723 291.896L133.435 291.956L133.493 292.139C133.55 292.321 133.435 292.503 133.263 292.503L133.09 292.564L133.147 292.868L133.32 292.807C133.493 292.746 133.666 292.868 133.666 293.05L133.723 293.232L134.011 293.171L133.953 292.989C133.896 292.807 134.011 292.625 134.184 292.625L134.356 292.564L134.299 292.26Z" fill="#FF7E1D"/>
<path id="Vector_25" d="M117.719 308.24L117.546 308.3C117.373 308.361 117.201 308.24 117.201 308.057L117.143 307.875L116.855 307.936L116.913 308.118C116.97 308.3 116.855 308.483 116.682 308.483L116.51 308.543L116.567 308.847L116.74 308.786C116.913 308.726 117.085 308.847 117.085 309.029L117.143 309.212L117.431 309.151L117.373 308.969C117.316 308.786 117.431 308.604 117.604 308.604L117.776 308.543L117.719 308.24Z" fill="#FF7E1D"/>
<path id="Vector_26" d="M100.391 257.08L100.218 257.141C100.045 257.202 99.8725 257.08 99.8725 256.898L99.8149 256.716L99.5271 256.777L99.5846 256.959C99.6422 257.141 99.5271 257.323 99.3544 257.323L99.1816 257.384L99.2392 257.688L99.4119 257.627C99.5846 257.566 99.7574 257.688 99.7574 257.87L99.8149 258.053L100.103 257.992L100.045 257.81C99.9877 257.627 100.103 257.445 100.276 257.445L100.448 257.384L100.391 257.08Z" fill="#FF7E1D"/>
<path id="Vector_27" d="M88.8184 200.999L88.6457 201.06C88.473 201.121 88.3002 200.999 88.3002 200.817L88.2427 200.635L87.9548 200.696L88.0124 200.878C88.07 201.06 87.9548 201.242 87.7821 201.242L87.6094 201.303L87.667 201.607L87.8397 201.546C88.0124 201.485 88.1851 201.607 88.1851 201.789L88.2427 201.971L88.5305 201.911L88.473 201.728C88.4154 201.546 88.5305 201.364 88.7032 201.364L88.876 201.303L88.8184 200.999Z" fill="#FF7E1D"/>
<path id="Vector_28" d="M79.2618 136.534L79.089 136.594C78.9163 136.655 78.7436 136.534 78.7436 136.351L78.686 136.169L78.3982 136.23L78.4557 136.412C78.5133 136.594 78.3982 136.777 78.2255 136.777L78.0527 136.837L78.1103 137.141L78.283 137.08C78.4557 137.02 78.6285 137.141 78.6285 137.323L78.686 137.506L78.9739 137.445L78.9163 137.263C78.8587 137.08 78.9739 136.898 79.1466 136.898L79.3193 136.837L79.2618 136.534Z" fill="#FF7E1D"/>
<path id="Vector_29" d="M99.4688 70.2444L99.2961 70.3052C99.1234 70.366 98.9506 70.2444 98.9506 70.0622L98.8931 69.8799L98.6052 69.9406L98.6628 70.1229C98.7203 70.3052 98.6052 70.4875 98.4325 70.4875L98.2598 70.5482L98.3173 70.852L98.4901 70.7913C98.6628 70.7305 98.8355 70.852 98.8355 71.0343L98.8931 71.2166L99.1809 71.1558L99.1233 70.9735C99.0658 70.7913 99.1809 70.609 99.3536 70.609L99.5264 70.5482L99.4688 70.2444Z" fill="#FF7E1D"/>
<path id="Vector_30" d="M134.99 46.6087L134.818 46.6695C134.645 46.7302 134.472 46.6087 134.472 46.4264L134.415 46.2441L134.127 46.3049L134.184 46.4872C134.242 46.6695 134.127 46.8517 133.954 46.8517L133.781 46.9125L133.839 47.2163L134.012 47.1555C134.184 47.0948 134.357 47.2163 134.357 47.3986L134.415 47.5808L134.702 47.5201L134.645 47.3378C134.587 47.1555 134.702 46.9733 134.875 46.9733L135.048 46.9125L134.99 46.6087Z" fill="#FF7E1D"/>
<path id="Vector_31" d="M183.006 54.6292L182.833 54.69C182.66 54.7507 182.488 54.6292 182.488 54.4469L182.43 54.2646L182.142 54.3254L182.2 54.5077C182.257 54.69 182.142 54.8722 181.97 54.8722L181.797 54.933L181.854 55.2368L182.027 55.176C182.2 55.1153 182.373 55.2368 182.373 55.4191L182.43 55.6014L182.718 55.5406L182.66 55.3583C182.603 55.176 182.718 54.9938 182.891 54.9938L183.063 54.933L183.006 54.6292Z" fill="#FF7E1D"/>
<path id="Vector_32" d="M155.544 171.106L155.198 171.166C154.853 171.227 154.508 170.984 154.45 170.619L154.392 170.255L153.759 170.376L153.817 170.741C153.874 171.106 153.644 171.47 153.299 171.531L152.953 171.592L153.068 172.26L153.414 172.199C153.759 172.138 154.105 172.381 154.162 172.746L154.22 173.111L154.853 172.989L154.795 172.624C154.738 172.26 154.968 171.895 155.314 171.835L155.659 171.774L155.544 171.106Z" fill="#FF7E1D"/>
<path id="Vector_33" d="M166.368 109.069L166.023 109.13C165.677 109.191 165.332 108.948 165.274 108.583L165.217 108.219L164.583 108.34L164.641 108.705C164.699 109.069 164.468 109.434 164.123 109.495L163.777 109.555L163.892 110.224L164.238 110.163C164.583 110.102 164.929 110.345 164.986 110.71L165.044 111.074L165.677 110.953L165.62 110.588C165.562 110.224 165.792 109.859 166.138 109.799L166.483 109.738L166.368 109.069Z" fill="#FF7E1D"/>
</g>
<g id="Group_3">
<g id="Group_4">
<path id="Vector_34" d="M251.919 157.982H231.193V136.655C231.193 124.26 221.636 114.235 209.949 114.235C198.262 114.235 188.705 124.321 188.705 136.655V157.982H167.979V136.655C167.979 112.23 186.805 92.3613 209.949 92.3613C233.093 92.3613 251.919 112.23 251.919 136.655V157.982Z" fill="#FF7E1D"/>
</g>
<g id="Group_5">
<path id="Vector_35" d="M249.792 256.959H170.111C160.324 256.959 152.379 248.574 152.379 238.245V176.635C152.379 166.306 160.324 157.921 170.111 157.921H249.849C259.636 157.921 267.581 166.306 267.581 176.635V238.245C267.524 248.574 259.579 256.959 249.792 256.959Z" fill="#FF7E1D"/>
</g>
</g>
<g id="Group_6">
<path id="Vector_36" d="M343.345 308.483L344.209 307.45C345.015 306.478 346.454 306.356 347.433 307.207L348.412 308.118L349.908 306.356L348.93 305.445C348.009 304.594 347.893 303.075 348.699 302.042L349.563 301.009L347.893 299.43L347.03 300.463C346.224 301.435 344.784 301.556 343.806 300.706L342.827 299.794L341.33 301.556L342.309 302.468C343.23 303.318 343.345 304.837 342.539 305.87L341.676 306.903L343.345 308.483Z" fill="#FF7E1D" fill-opacity="0.31"/>
<path id="Vector_37" d="M293.892 352.776L294.41 352.169C294.87 351.622 295.676 351.561 296.252 352.047L296.828 352.594L297.692 351.561L297.116 351.014C296.598 350.528 296.54 349.677 297.001 349.07L297.519 348.462L296.54 347.551L296.022 348.158C295.561 348.705 294.755 348.766 294.18 348.28L293.604 347.733L292.74 348.766L293.316 349.313C293.834 349.799 293.892 350.65 293.431 351.257L292.913 351.865L293.892 352.776Z" fill="#FF7E1D" fill-opacity="0.31"/>
<path id="Vector_38" d="M333.616 360.431L334.134 359.824C334.595 359.277 335.401 359.216 335.977 359.702L336.553 360.249L337.416 359.216L336.84 358.669C336.322 358.183 336.265 357.333 336.725 356.725L337.243 356.117L336.265 355.206L335.746 355.814C335.286 356.36 334.48 356.421 333.904 355.935L333.328 355.388L332.465 356.421L333.041 356.968C333.559 357.454 333.616 358.305 333.156 358.912L332.638 359.52L333.616 360.431Z" fill="#FF7E1D" fill-opacity="0.31"/>
<path id="Vector_39" d="M328.952 330.234L329.067 330.112C329.182 329.991 329.413 329.93 329.528 330.052L329.643 330.173L329.873 329.93L329.758 329.809C329.643 329.687 329.585 329.444 329.7 329.323L329.816 329.201L329.585 328.958L329.47 329.08C329.355 329.201 329.125 329.262 329.009 329.14L328.894 329.019L328.664 329.262L328.779 329.383C328.894 329.505 328.952 329.748 328.837 329.869L328.722 329.991L328.952 330.234Z" fill="#FF7E1D" fill-opacity="0.31"/>
<path id="Vector_40" d="M289.859 312.432L290.089 312.128C290.32 311.824 290.723 311.824 291.01 312.067L291.298 312.31L291.701 311.824L291.413 311.581C291.126 311.338 291.126 310.913 291.356 310.609L291.586 310.305L291.126 309.88L290.895 310.184C290.665 310.487 290.262 310.487 289.974 310.244L289.686 310.001L289.283 310.487L289.571 310.731C289.859 310.974 289.859 311.399 289.629 311.703L289.398 312.006L289.859 312.432Z" fill="#FF7E1D" fill-opacity="0.31"/>
<path id="Vector_41" d="M305.117 332.24L305.347 331.937C305.577 331.633 305.98 331.633 306.268 331.876L306.556 332.119L306.959 331.633L306.671 331.39C306.383 331.147 306.383 330.721 306.614 330.418L306.844 330.114L306.383 329.688L306.153 329.992C305.923 330.296 305.52 330.296 305.232 330.053L304.944 329.749L304.541 330.235L304.829 330.478C305.117 330.721 305.117 331.147 304.886 331.45L304.656 331.754L305.117 332.24Z" fill="#FF7E1D" fill-opacity="0.31"/>
<path id="Vector_42" d="M314.444 302.345L314.559 302.224C314.674 302.102 314.905 302.042 315.02 302.163L315.135 302.285L315.365 302.042L315.25 301.92C315.135 301.798 315.077 301.555 315.193 301.434L315.308 301.312L315.077 301.069L314.962 301.191C314.847 301.312 314.617 301.373 314.502 301.252L314.387 301.13L314.156 301.373L314.271 301.495C314.387 301.616 314.444 301.859 314.329 301.981L314.214 302.102L314.444 302.345Z" fill="#FF7E1D" fill-opacity="0.31"/>
<path id="Vector_43" d="M361.079 348.523L361.194 348.401C361.309 348.28 361.539 348.219 361.655 348.341L361.77 348.462L362 348.219L361.885 348.098C361.77 347.976 361.712 347.733 361.827 347.612L361.942 347.49L361.712 347.247L361.597 347.369C361.482 347.49 361.252 347.551 361.136 347.429L361.021 347.308L360.791 347.551L360.906 347.672C361.021 347.794 361.079 348.037 360.964 348.158L360.849 348.28L361.079 348.523Z" fill="#FF7E1D" fill-opacity="0.31"/>
</g>
</g>
</g>
<defs>
<clipPath id="clip0">
<rect width="360.75" height="360.75" fill="white" transform="translate(0.78125 0.431641)"/>
</clipPath>
</defs>
</svg>
